<?xml version="1.0" encoding="UTF-8"?>
<svg id="Layer_2" xmlns="http://www.w3.org/2000/svg" viewBox="0 0 672.71 672.71">
  <defs>
    <style>
      .cls-1 {
        fill: #e9e9e9;
      }

      .cls-2 {
        fill: #f30;
      }

      .cls-3 {
        fill: #333;
      }
    </style>
  </defs>
  <g id="dC_Symbol">
    <g>
      <circle class="cls-1" cx="336.35" cy="336.35" r="336.35"/>
      <circle class="cls-2" cx="344.24" cy="456.15" r="32.66"/>
      <g>
        <g>
          <rect class="cls-3" x="498.48" y="183.89" width="20.11" height="60.84"/>
          <rect class="cls-3" x="498.48" y="428.19" width="20.11" height="60.82"/>
        </g>
        <g>
          <rect class="cls-3" x="524.34" y="183.89" width="13.41" height="60.84"/>
          <rect class="cls-3" x="524.34" y="428.19" width="13.41" height="60.82"/>
        </g>
        <g>
          <rect class="cls-3" x="543.5" y="183.86" width="7.82" height="60.84"/>
          <rect class="cls-3" x="543.5" y="428.16" width="7.82" height="60.82"/>
        </g>
        <g>
          <rect class="cls-3" x="557.07" y="183.89" width="3.91" height="60.84"/>
          <rect class="cls-3" x="557.07" y="428.19" width="3.91" height="60.82"/>
        </g>
        <path class="cls-3" d="M483.83,244.51h8.81v-60.41h-8.81c-82.87,0-150.04,68.69-150.04,152.34s67.18,152.93,150.04,152.93h0s8.81.01,8.81.01v-60.64h-8.81c-49.82-.01-90.2-42.01-90.2-92.29s40.39-91.93,90.2-91.93Z"/>
      </g>
      <path class="cls-3" d="M333.86,364.25v-180.51h-60.22v94.59c-15.15-7.7-32.28-12.05-50.44-12.05-61.57,0-111.48,49.91-111.48,111.48s49.91,111.48,111.48,111.48,112.55-51.64,110.66-111.48c-.14-4.57.53-9.08,0-13.51ZM223.2,428.19c-27.86,0-50.44-22.58-50.44-50.44s22.58-50.44,50.44-50.44,50.44,22.58,50.44,50.44-22.58,50.44-50.44,50.44Z"/>
    </g>
  </g>
</svg>